<svg xmlns="http://www.w3.org/2000/svg" width="1012" height="1024" viewBox="0 0 1012 1024">
  <defs><path id="_9cc4600" d="m145 418c75-25 273-85 391-118 49-16 92-8 126 21 29 24 49 54 49 86 1 37-21 63-46 90-24 25-36 47-34 78 2 52 43 109 87 144 46 40 101 59 159 67 53 7 86 39 91 80 9 51-30 96-78 109-50 14-95 0-132-31-33-28-60-64-86-93-39-43-74-63-117-71-51-10-91 2-133 26-51 29-91 72-142 111-45 35-92 64-140 60-53-2-89-37-95-79-7-39 17-76 50-97 26-17 55-19 85-24 68-11 124-33 170-66 40-29 78-69 99-108 14-26 20-51 10-73-8-20-28-25-50-20-58 18-141 47-207 70-41 14-79-1-101-28-23-28-22-58-10-85 12-24 30-40 54-49z"/><clipPath id="_9cc4601"><use href="#_9cc4600"/></clipPath><linearGradient id="_9cc4602" x1="384" x2="714" y1="534" y2="928" gradientUnits="userSpaceOnUse"><stop stop-color="#ff645c" offset="0"/><stop stop-color="#ff8500" offset=".51"/><stop stop-color="#ff4200" offset="1"/></linearGradient><radialGradient id="_9cc4603" cx="0" cy="0" r="1" gradienttransform="translate(119 930) rotate(-39) scale(340 238)" gradientUnits="userSpaceOnUse"><stop stop-color="#003e2d" offset="0"/><stop stop-color="#005239" offset=".36"/><stop stop-color="#0b7143" offset=".66"/><stop stop-color="#358546" stop-opacity="0" offset="1"/></radialGradient><radialGradient id="_9cc4604" cx="0" cy="0" r="1" gradienttransform="translate(204 815) rotate(-29) scale(267 160)" gradientUnits="userSpaceOnUse"><stop stop-color="#187449" stop-opacity=".9" offset="0"/><stop stop-color="#3b8546" stop-opacity="0" offset="1"/></radialGradient><radialGradient id="_9cc4605" cx="0" cy="0" r="1" gradienttransform="translate(881 818) rotate(34) scale(326 171)" gradientUnits="userSpaceOnUse"><stop stop-color="#90001e" offset="0"/><stop stop-color="#b90018" offset=".43"/><stop stop-color="#df0010" stop-opacity=".86" offset=".72"/><stop stop-color="#ef0000" stop-opacity="0" offset="1"/></radialGradient><radialGradient id="_9cc4606" cx="0" cy="0" r="1" gradienttransform="translate(637 647) rotate(43) scale(200 114)" gradientUnits="userSpaceOnUse"><stop stop-color="#e20021" offset="0"/><stop stop-color="#fa152d" stop-opacity="0" offset="1"/></radialGradient><linearGradient id="_9cc4607" x1="362" x2="460" y1="327" y2="649" gradientUnits="userSpaceOnUse"><stop stop-color="#003aff" offset="0"/><stop stop-color="#0648ff" offset=".3"/><stop stop-color="#6934fd" offset=".52"/><stop stop-color="#c942c6" offset=".74"/><stop stop-color="#ff5676" stop-opacity="0" offset="1"/></linearGradient><radialGradient id="_9cc4608" cx="0" cy="0" r="1" gradienttransform="translate(144 530) rotate(-18) scale(390 139)" gradientUnits="userSpaceOnUse"><stop stop-color="#ff8bdc" offset="0"/><stop stop-color="#fd79c5" offset=".4"/><stop stop-color="#ff648f" stop-opacity=".9" offset=".72"/><stop stop-color="#ff648f" stop-opacity="0" offset="1"/></radialGradient><radialGradient id="_9cc4609" cx="0" cy="0" r="1" gradienttransform="translate(626 371) rotate(26) scale(156 222)" gradientUnits="userSpaceOnUse"><stop stop-color="#0661ff" offset="0"/><stop stop-color="#0050ff" offset=".34"/><stop stop-color="#001aff" offset=".64"/><stop stop-color="#1700e6" stop-opacity=".82" offset=".82"/><stop stop-color="#3000c8" stop-opacity="0" offset="1"/></radialGradient><radialGradient id="_9cc46010" cx="0" cy="0" r="1" gradienttransform="translate(686 354) rotate(42) scale(81 70)" gradientUnits="userSpaceOnUse"><stop stop-color="#4670ff" stop-opacity=".74" offset="0"/><stop stop-color="#356aff" stop-opacity="0" offset="1"/></radialGradient><radialGradient id="_9cc46011" cx="0" cy="0" r="1" gradienttransform="translate(394 548) rotate(-18) scale(133 119)" gradientUnits="userSpaceOnUse"><stop stop-color="#ff6544" offset="0"/><stop stop-color="#ff6262" stop-opacity=".8" offset=".5"/><stop stop-color="#ff6262" stop-opacity="0" offset="1"/></radialGradient><radialGradient id="_9cc46012" cx="0" cy="0" r="1" gradienttransform="translate(697 127) rotate(43) scale(227 201)" gradientUnits="userSpaceOnUse"><stop stop-color="#1000ff" offset="0"/><stop stop-color="#1000fa" offset=".58"/><stop stop-color="#0800f4" offset="1"/></radialGradient></defs>
  <g id="_9cc46013">
    <rect width="1012" height="1024" x="-698" y="1334" fill="#000000" />
  </g>
  <g id="_9cc46014">
    <g id="_9cc46015" clip-path="url(#_9cc4601)">
      <path d="M0 250H1012V1024H0Z" fill="url(#_9cc4602)" />
      <path d="M0 250H1012V1024H0Z" fill="url(#_9cc4604)" />
      <path d="M0 250H1012V1024H0Z" fill="url(#_9cc4603)" />
      <path d="M0 250H1012V1024H0Z" fill="url(#_9cc4605)" />
      <path d="M0 250H1012V1024H0Z" fill="url(#_9cc4606)" />
      <path d="M0 250H1012V660H0Z" fill="url(#_9cc4607)" />
      <path d="M0 250H1012V1024H0Z" fill="url(#_9cc4608)" />
      <path d="M0 250H1012V1024H0Z" fill="url(#_9cc46011)" />
      <path d="M0 250H1012V1024H0Z" fill="url(#_9cc4609)" />
      <path d="M0 250H1012V1024H0Z" fill="url(#_9cc46010)" />
    </g>
    <path id="_9cc46016" d="m870 179c0 73-61 135-137 135-78 0-139-57-140-132s61-137 135-138c77-2 140 61 142 135z" fill="url(#_9cc46012)" />
  </g>
</svg>